<svg width="34" height="39" viewBox="0 0 34 39" fill="none" xmlns="http://www.w3.org/2000/svg">
<path d="M16.5873 0H17.081L33.6684 9.67595V29.3241L17.081 39H16.5873L0 29.3241V9.67595L16.5873 0Z" fill="#255773"/>
<path d="M9.33038 12.9202L9.87342 12.3771C9.87342 12.3771 21.0304 12.3771 21.1785 12.3771C21.3266 12.3771 21.919 12.6839 21.919 12.6839L22.6595 13.2798C22.6595 13.2798 23.0738 13.694 23.1532 13.7734C23.2326 13.8528 23.4494 14.4152 23.4494 14.5104C23.4494 14.6057 23.4494 17.0282 23.4494 17.0282C23.4494 17.0282 23.4494 18.6538 23.4494 18.8054C23.4494 18.957 22.9557 19.8949 22.9557 19.8949C22.9557 19.8949 22.5114 20.5367 22.4127 20.6355C22.3139 20.7342 21.1785 21.4253 21.1785 21.4253C21.1785 21.4253 20.2899 21.919 20.1418 21.919C19.9937 21.919 18.8582 21.919 18.8582 21.919L23.9159 26.4468H19.8456L14.7114 22.1025H12.8354V19.4013H19.3519C19.3519 19.4013 19.8456 19.4013 20.3886 18.8582C20.9316 18.3152 20.9316 18.019 20.9316 18.019V16.6367V15.3038L20.6354 15.0535H11.6506V26.4468H9.33038V12.9202Z" fill="#45A2BD"/>
</svg>
